HIERARCHY
ROOT Hips
{
	OFFSET 0.000000 0.000000 0.000000
	CHANNELS 6 Xposition Yposition Zposition Zrotation Yrotation Xrotation 
	JOINT LHipJoint
	{
		OFFSET 0.000000 0.000000 0.000000
		CHANNELS 3 Zrotation Yrotation Xrotation
		JOINT LeftUpLeg
		{
			OFFSET 1.363060 -1.794630 0.839290
			CHANNELS 3 Zrotation Yrotation Xrotation
			JOINT LeftLeg
			{
				OFFSET 2.448110 -6.726130 0.000000
				CHANNELS 3 Zrotation Yrotation Xrotation
				JOINT LeftFoot
				{
					OFFSET 2.562200 -7.039590 0.000000
					CHANNELS 3 Zrotation Yrotation Xrotation
					JOINT LeftToeBase
					{
						OFFSET 0.157640 -0.433110 2.322550
						CHANNELS 3 Zrotation Yrotation Xrotation
						End Site
						{
							OFFSET 0.000000 0.000000 0.000000
						}
					}
				}
			}
		}
	}
	JOINT RHipJoint
	{
		OFFSET 0.000000 0.000000 0.000000
		CHANNELS 3 Zrotation Yrotation Xrotation
		JOINT RightUpLeg
		{
			OFFSET -1.305520 -1.794630 0.839290
			CHANNELS 3 Zrotation Yrotation Xrotation
			JOINT RightLeg
			{
				OFFSET -2.542530 -6.985550 0.000000
				CHANNELS 3 Zrotation Yrotation Xrotation
				JOINT RightFoot
				{
					OFFSET -2.568260 -7.056230 0.000000
					CHANNELS 3 Zrotation Yrotation Xrotation
					JOINT RightToeBase
					{
						OFFSET -0.164730 -0.452590 2.363150
						CHANNELS 3 Zrotation Yrotation Xrotation
						End Site
						{
							OFFSET 0.000000 0.000000 0.000000
						}
					}
				}
			}
		}
	}
	JOINT LowerBack
	{
		OFFSET 0.000000 0.000000 0.000000
		CHANNELS 3 Zrotation Yrotation Xrotation
		JOINT Spine
		{
			OFFSET 0.028270 2.035590 -0.193380
			CHANNELS 3 Zrotation Yrotation Xrotation
			JOINT Spine1
			{
				OFFSET 0.056720 2.048850 -0.042750
				CHANNELS 3 Zrotation Yrotation Xrotation
				JOINT Neck
				{
					OFFSET 0.000000 0.000000 0.000000
					CHANNELS 3 Zrotation Yrotation Xrotation
					JOINT Neck1
					{
						OFFSET -0.054170 1.746240 0.172020
						CHANNELS 3 Zrotation Yrotation Xrotation
						JOINT Head
						{
							OFFSET 0.104070 1.761360 -0.123970
							CHANNELS 3 Zrotation Yrotation Xrotation
							End Site
							{
								OFFSET 0.000000 0.000000 0.000000
							}
						}
					}
				}
				JOINT LeftShoulder
				{
					OFFSET 0.000000 0.000000 0.000000
					CHANNELS 3 Zrotation Yrotation Xrotation
					JOINT LeftArm
					{
						OFFSET 3.362410 1.200890 -0.311210
						CHANNELS 3 Zrotation Yrotation Xrotation
						JOINT LeftForeArm
						{
							OFFSET 4.983000 -0.000000 -0.000000
							CHANNELS 3 Zrotation Yrotation Xrotation
							JOINT LeftHand
							{
								OFFSET 3.483560 -0.000000 -0.000000
								CHANNELS 3 Zrotation Yrotation Xrotation
								JOINT LeftFingerBase
								{
									OFFSET 0.000000 0.000000 0.000000
									CHANNELS 3 Zrotation Yrotation Xrotation
									JOINT LeftHandIndex1
									{
										OFFSET 0.715260 -0.000000 -0.000000
										CHANNELS 3 Zrotation Yrotation Xrotation
										End Site
										{
											OFFSET 0.000000 0.000000 0.000000
										}
									}
								}
								JOINT LThumb
								{
									OFFSET 0.000000 0.000000 0.000000
									CHANNELS 3 Zrotation Yrotation Xrotation
									End Site
									{
										OFFSET 0.000000 0.000000 0.000000
									}
								}
							}
						}
					}
				}
				JOINT RightShoulder
				{
					OFFSET 0.000000 0.000000 0.000000
					CHANNELS 3 Zrotation Yrotation Xrotation
					JOINT RightArm
					{
						OFFSET -3.136600 1.374050 -0.404650
						CHANNELS 3 Zrotation Yrotation Xrotation
						JOINT RightForeArm
						{
							OFFSET -5.241900 -0.000000 -0.000000
							CHANNELS 3 Zrotation Yrotation Xrotation
							JOINT RightHand
							{
								OFFSET -3.444170 -0.000000 -0.000000
								CHANNELS 3 Zrotation Yrotation Xrotation
								JOINT RightFingerBase
								{
									OFFSET 0.000000 0.000000 0.000000
									CHANNELS 3 Zrotation Yrotation Xrotation
									JOINT RightHandIndex1
									{
										OFFSET -0.622530 -0.000000 -0.000000
										CHANNELS 3 Zrotation Yrotation Xrotation
										End Site
										{
											OFFSET 0.000000 0.000000 0.000000
										}
									}
								}
								JOINT RThumb
								{
									OFFSET 0.000000 0.000000 0.000000
									CHANNELS 3 Zrotation Yrotation Xrotation
									End Site
									{
										OFFSET 0.000000 0.000000 0.000000
									}
								}
							}
						}
					}
				}
			}
		}
	}
}
MOTION
Frames: 10
Frame Time: 0.033333
1.430627 19.775869 -19.939873 -1.638139 -1.680712 27.425858 -21.194854 -2.612119 4.446559 2.940322 0.068907 -31.903851 -2.330469 8.829400 -10.598126 3.896571 14.012030 45.117670 -0.471467 0.078361 -40.140227 21.002265 4.153200 -0.676951 -2.055902 -4.829101 -33.037388 5.124883 15.265145 14.607392 0.041160 -17.762308 34.224951 -0.209310 -0.051535 -42.830901 -1.473663 2.874628 -6.094745 1.966560 -1.050634 -3.749979 -3.011703 -3.520364 3.901112 9.754662 -15.327736 -18.521953 -0.809785 -0.124395 -2.325909 -0.018962 0.043639 0.056322 -4.659727 26.412499 -2.730040 -74.505430 24.557744 -7.824372 8.935091 -43.444341 -5.590394 11.159021 -2.618356 -0.242341 -0.320303 0.063982 0.024651 0.043993 0.028284 -0.063041 0.054660 0.051688 -0.034083 -5.134683 -1.952459 -0.522239 64.852314 -11.944706 -12.830823 0.821702 75.100135 0.478630 -8.798580 10.568045 -0.912561 0.037162 -0.381878 0.087254 0.098833 0.003218 -0.112672 0.091319 0.014041 0.095592 
1.428111 19.502858 -19.854872 0.288311 -1.737424 29.629369 -21.332098 -4.608193 3.798511 0.651180 0.815913 -34.786548 -1.232457 6.919250 -6.845924 2.636520 14.546056 40.537831 -0.874250 0.090749 -37.190802 18.799844 4.605103 -0.229643 -2.197046 -3.725068 -33.692616 3.563750 14.437533 11.862672 0.069513 -15.846511 30.041408 0.148379 -0.065765 -41.152497 -3.456569 3.997476 -5.919826 2.292946 -1.446546 -3.677284 -3.656485 -3.904884 5.511401 10.118852 -15.467973 -18.518470 -0.987070 -0.125937 -2.579937 -0.005154 0.061241 0.038600 -4.463230 25.351913 -3.216913 -73.705801 30.440734 -4.320527 7.869559 -46.315944 -5.377313 11.314437 -2.626193 -0.246811 -0.274650 0.055015 0.009342 0.043730 0.028132 -0.066546 0.061669 0.055674 -0.030610 -1.347060 -5.176689 -2.850247 63.495900 -11.360648 -9.484705 1.881919 77.655092 2.274973 -8.752205 10.006377 -0.845823 0.170227 -0.428580 0.068548 0.113212 -0.009946 -0.107103 0.084411 0.020754 0.095279 
1.426395 19.140565 -19.753742 -0.186254 -2.979605 32.610588 -19.374830 -5.753883 2.948314 -1.171926 0.003529 -38.672201 0.945398 6.137115 -2.286982 -0.157318 16.634146 32.808153 -1.342790 0.189205 -33.173201 17.280094 6.313554 0.357543 -1.018670 -2.859615 -35.763030 2.873807 14.346121 10.811155 0.437780 -13.408501 24.179180 0.435276 -0.124262 -41.822796 -4.007094 5.537923 -7.729387 3.301372 -1.828268 -3.997693 -4.015487 -3.530427 5.516834 9.566177 -15.715662 -18.476929 -1.349266 -0.146283 -2.477371 0.001440 0.070665 0.037494 -5.330330 24.146860 -2.900280 -69.263926 32.525726 1.139478 11.537616 -51.239767 -7.994365 12.492111 -2.828385 -0.329840 -0.212249 0.072833 -0.010632 0.040425 0.023770 -0.060849 0.054625 0.060036 -0.034279 1.983977 -8.219844 0.699707 62.128139 -7.596276 -8.358112 1.826062 75.933809 2.011581 -9.016910 9.002936 -0.794949 0.249017 -0.579432 0.055533 0.125962 -0.023930 -0.095061 0.059233 0.013028 0.077383 
1.425723 18.704722 -19.630527 0.405501 -3.401253 34.172046 -18.152439 -5.988405 2.730438 -2.799325 -2.125741 -43.670741 2.909872 5.059175 6.509771 -1.753868 16.678899 22.862758 -1.984537 0.252022 -31.144198 15.006193 6.514894 0.686652 -0.092056 -0.806027 -39.021039 2.701084 12.761249 15.057190 0.059123 -10.454107 15.290463 0.997366 -0.184040 -42.589232 -3.757100 2.985644 -7.823459 2.863399 -1.541144 -3.501507 -3.694032 -1.937055 5.212679 9.686675 -15.403926 -18.227945 -1.361713 -0.140896 -2.663790 -0.007835 0.070013 0.035513 -5.611767 23.871183 -2.568267 -68.123053 30.831898 3.813447 13.155820 -54.190016 -9.890807 12.589404 -2.793416 -0.335876 -0.094716 0.253266 -0.020032 0.030944 0.017634 -0.054860 0.049625 0.067340 -0.036781 2.742405 -8.791791 -0.836635 63.324571 -7.090233 -6.162818 1.804391 72.034070 1.319700 -8.629924 8.361558 -0.701509 0.251024 -0.546431 0.042269 0.146324 -0.029843 -0.088725 0.055790 0.000031 0.072967 
1.447557 18.218094 -19.461002 0.307151 -2.958120 35.151072 -16.596615 -4.685011 3.044227 -3.597105 -6.531955 -47.773624 5.284548 5.210291 14.470745 -1.794288 14.987593 12.755669 -2.612954 0.354564 -29.589265 13.761503 5.685969 0.836340 0.218815 1.385352 -44.516518 5.004696 10.669060 25.277627 -0.281360 -8.707079 4.898746 1.633624 -0.255011 -42.500530 -3.877759 4.181082 -8.518488 2.453656 -0.998875 -4.059495 -3.682730 -2.127376 5.033009 9.624225 -14.935666 -17.413709 -1.486510 -0.124902 -2.495317 -0.017449 0.075471 0.026303 -4.041276 21.210092 -1.855590 -67.025643 28.931107 6.845127 13.860645 -58.092537 -11.610331 12.744064 -3.818289 -0.469531 -0.155292 0.193685 -0.021693 0.011387 -0.000113 -0.045086 0.032020 0.062005 -0.035899 4.116723 -11.288504 -1.710259 65.109979 -6.875815 -6.164531 0.320376 70.463540 -0.033317 -9.072467 8.566857 -0.733419 0.206469 -0.495282 0.037908 0.157795 -0.028999 -0.084013 0.055900 -0.014487 0.068237 
1.450018 17.753237 -19.265074 -0.118740 -4.022435 35.734599 -14.697907 -3.550392 3.356095 -5.444060 -8.440930 -52.650221 7.051692 5.799642 23.375585 -1.259476 12.903956 3.594037 -3.171325 0.438910 -28.704161 12.914551 4.482396 -0.252062 0.704364 4.049561 -49.523673 7.309869 8.199275 37.633508 -1.098096 -7.272936 -2.189107 2.315067 -0.290370 -42.342350 -4.519987 4.913260 -9.886642 2.334693 -1.727047 -3.064379 -4.275107 -1.971292 3.729157 9.273759 -14.471808 -16.006671 -1.725472 -0.133346 -2.356168 -0.035855 0.084114 0.021686 -3.104995 20.448762 -0.417958 -66.957676 25.801109 7.361702 13.012648 -62.185672 -11.328312 13.209651 -4.647856 -0.575453 -0.076538 0.221789 -0.016783 -0.007573 -0.019886 -0.039802 0.010044 0.060279 -0.031833 5.695895 -10.996213 -1.474410 67.011893 -8.147663 -5.333398 0.119781 70.224607 -0.362024 -9.403561 8.980218 -0.783375 0.114924 -0.420616 0.033528 0.168957 -0.026512 -0.076781 0.063307 -0.024145 0.068005 
1.456251 17.345203 -19.038441 -0.494516 -3.509273 36.404879 -12.600615 -2.680414 2.968621 -6.925456 -10.342742 -55.260556 7.695328 5.766138 30.239155 -0.631885 11.543499 -4.035974 -3.544997 0.492850 -28.008199 13.667498 4.240910 -0.443054 1.574099 4.773360 -54.068645 6.657352 7.177657 47.056617 -1.776587 -6.436147 -7.338786 2.650330 -0.279034 -42.073911 -4.161192 6.332909 -12.193451 1.115498 -0.856961 -2.400150 -4.539726 -3.866137 3.960955 8.790910 -14.059958 -15.084347 -2.066299 -0.158535 -2.277608 -0.051454 0.092408 0.010938 -2.774445 18.940756 -0.826779 -67.333422 21.628984 9.069851 10.663468 -65.111119 -9.782707 14.547732 -5.302532 -0.735529 -0.151930 0.473783 -0.018467 -0.014046 -0.035740 -0.031057 -0.016494 0.045282 -0.023330 6.961945 -12.724484 -0.007056 68.704956 -7.054420 -3.492306 1.465591 71.981009 0.685418 -10.177139 9.967898 -0.935865 0.126067 -0.346787 0.021645 0.172884 -0.026176 -0.077425 0.052069 -0.027743 0.060996 
1.460642 17.029407 -18.803251 1.491588 -2.419349 36.264659 -12.829049 -1.895167 3.939967 -8.687924 -11.987318 -57.090655 6.879798 4.522452 34.686201 0.533290 10.134814 -9.299819 -3.916706 0.589968 -27.596287 12.406258 2.438738 -0.104744 2.307907 5.673499 -56.866258 5.458691 6.371568 52.975947 -2.197299 -6.289363 -10.932178 3.204727 -0.328751 -42.411768 -6.368138 5.662205 -12.388958 1.871114 -0.568120 -3.352146 -5.089842 -3.797271 3.261413 8.576490 -13.341996 -14.572057 -2.615288 -0.216994 -2.025514 -0.065781 0.106061 0.008525 -2.403056 15.942743 -0.323219 -68.568504 16.501760 9.031826 9.732628 -66.280531 -8.977645 15.873639 -5.705677 -0.869244 -0.176485 0.466083 -0.016751 -0.020929 -0.055200 -0.026770 -0.044466 0.030787 -0.012586 8.103386 -13.958821 1.933195 69.494204 -5.182190 -1.593158 2.434157 73.415386 2.606590 -10.830453 10.655461 -1.065873 0.136135 -0.344383 0.009256 0.168925 -0.021031 -0.079022 0.032047 -0.027060 0.046856 
1.456356 16.818051 -18.571995 2.055063 -1.338988 34.439727 -12.951509 -0.917413 5.902569 -7.501591 -13.357924 -57.214396 5.910807 5.943385 36.943728 1.532874 8.815859 -13.265463 -4.249025 0.673763 -27.935940 12.137745 1.940537 2.847862 1.986588 6.875913 -58.934603 3.004868 4.412118 56.090089 -2.588595 -6.265427 -12.658310 3.809234 -0.398156 -43.120367 -6.919247 5.694417 -12.439215 1.384194 -1.884056 -2.803015 -3.801894 -3.201591 3.094774 8.155744 -11.902253 -13.140305 -2.953182 -0.246516 -1.661159 -0.068719 0.095223 0.013830 -3.778668 12.380339 0.351158 -68.494463 8.487183 11.009350 9.074924 -63.034751 -7.916943 16.949193 -6.184318 -0.991943 -0.161162 0.527141 -0.012258 -0.033171 -0.046246 -0.010641 -0.057629 0.027910 -0.011287 9.137553 -13.905220 1.650017 68.777553 -2.015508 -0.366843 2.643163 68.761934 2.977346 -11.110009 11.456644 -1.173190 0.146235 -0.409038 0.005116 0.165649 -0.018329 -0.082972 0.025333 -0.022436 0.031181 
1.445935 16.708745 -18.331295 3.561271 -0.212441 33.733933 -13.820239 -0.453368 6.202392 -7.029627 -14.725388 -56.586974 5.322903 6.710078 39.114309 2.209095 8.314868 -14.738473 -4.638723 0.750998 -27.977614 11.636315 2.125826 4.468537 1.165573 6.483841 -61.331660 1.743797 2.973440 59.879624 -2.143079 -7.820402 -11.546931 4.333718 -0.478048 -43.776940 -7.072272 3.784692 -12.487066 0.945278 -1.428678 -3.920094 -4.453867 -2.814963 3.885230 8.487564 -10.214997 -11.845396 -3.148131 -0.255213 -1.330447 -0.069121 0.090184 0.032308 -4.407148 8.927391 0.187673 -68.176768 -1.681756 13.636928 8.602728 -58.484014 -7.171218 18.000166 -6.378027 -1.082936 -0.123182 0.460767 -0.006714 -0.042877 -0.037905 0.004502 -0.067954 0.026554 -0.016397 11.837041 -12.513443 1.756667 68.098438 4.037541 -1.071004 2.005497 62.745373 2.421376 -11.552771 12.278638 -1.290908 0.177165 -0.459582 0.002457 0.151135 -0.019661 -0.083521 0.018602 -0.018627 0.018331 
